<svg width="512" height="512" viewBox="0 0 512 512" fill="none" xmlns="http://www.w3.org/2000/svg">
    <path d="M256 15L464.712 135.5V376.5L256 497L47.2879 376.5V135.5L256 15Z" fill="#CCCCCC"/>
    <path d="M256 497L464.712 376.5V135.5L256 15L256 497Z" fill="#A6A6A6"/>
    <path d="M47.2878 135.5V136.5L256 257L464.712 136.5V135.5L256 15L47.2878 135.5Z" fill="white"/>
    <path d="M390.686 320.187V178.938L268.271 108.314V162.616L316.295 190.238C318.179 191.18 318.179 194.005 316.295 194.946L259.168 227.904C257.599 228.846 255.401 228.846 253.832 227.904L196.705 194.632C194.821 193.691 194.821 190.866 196.705 189.924L244.729 162.302V108L122.314 178.624V320.187V319.559V320.187L169.397 293.193V237.635C169.397 235.751 171.594 234.182 173.477 235.438L230.604 268.396C232.174 269.337 233.429 271.221 233.429 273.104V339.02C233.429 340.903 231.232 342.473 229.349 341.217L181.324 313.595L134.242 340.589L256.657 411.213L379.072 340.589L331.989 313.595L283.965 341.217C282.396 342.159 279.884 340.903 279.884 339.02V273.104C279.884 271.221 280.826 269.337 282.709 268.396L339.837 235.438C341.406 234.496 343.917 235.751 343.917 237.635V293.193L390.686 320.187Z" fill="#4C4C4C"/>
    <path d="M256.343 411.527L378.758 340.903L331.676 313.909L283.651 341.531C282.082 342.473 279.571 341.217 279.571 339.334V273.418C279.571 271.534 280.512 269.651 282.396 268.709L339.523 235.751C341.092 234.81 343.603 236.065 343.603 237.949V293.506L390.686 320.501V178.938L256.343 256.468V411.527Z" fill="black"/>
    <path d="M267.957 108V162.302L315.981 189.924C317.865 190.866 317.865 193.691 315.981 194.632L258.854 227.59C257.285 228.532 255.088 228.532 253.518 227.59L196.705 194.632C194.821 193.691 194.821 190.866 196.705 189.924L244.729 162.302V108L122.314 178.624L256.657 256.154L391 178.624L267.957 108Z" fill="#808080"/>
    <path d="M228.721 341.217L180.697 313.595L133.614 340.589L256.029 411.214V256.154L122 178.938V320.501V319.873V320.501L169.083 293.506V237.949C169.083 236.065 171.28 234.496 173.163 235.751L230.291 268.709C231.86 269.651 233.116 271.534 233.116 273.418V339.334C232.802 340.903 230.604 342.159 228.721 341.217Z" fill="#4C4C4C"/>
</svg>